<svg id="Layer_1" data-name="Layer 1" xmlns="http://www.w3.org/2000/svg" width="749" height="441"><defs><style>.cls-4{fill:#fff}</style></defs><path d="M286.08 334.28H146.22a30 30 0 0 1 0-59.94h139.86a30 30 0 0 1 0 59.94z" fill="#353535" opacity=".2"/><path fill="#02797e" d="M661.57 277.96L151.61 438 3 33.46 538.37 3.61l123.2 274.35"/><path class="cls-4" d="M276.08 196.67a54.2 54.2 0 0 1-26 47c-8.26 5.08-18.42 8.89-29.85 11.43a177.89 177.89 0 0 1-38.74 3.81H171.3V311h-66V137.61h77.48c29.21 0 52.08 5.08 68.59 14.61s24.77 24.77 24.77 44.46m-63.51.64c0-15.24-11.43-22.86-33.66-22.86h-8.26v46.34h7.62c10.8 0 19.69-1.91 25.4-5.72 5.67-3.17 8.85-9.52 8.85-17.77zM439.93 311a187.32 187.32 0 0 1-34.93 3.16c-18.42 0-34.93-1.91-48.9-6.35-14.61-4.45-26.67-10.16-36.83-17.78a74.21 74.21 0 0 1-22.86-27.94 89 89 0 0 1-7.62-36.83c0-13.34 2.54-25.4 8.26-36.83a91.32 91.32 0 0 1 23.5-28.58 121.33 121.33 0 0 1 36.2-18.42c14-4.45 29.21-6.35 45.73-6.35 12.7 0 24.77.64 35.56 2.54 10.8 2.54 10.8 2.54 19.05 5.72v46.36a77.52 77.52 0 0 0-22.23-8.89 89.08 89.08 0 0 0-26-3.81c-15.24 0-27.31 4.45-36.83 12.07-9.53 8.26-14 19.69-14 35.56 0 7.62 1.27 14.61 4.45 21 3.18 5.72 7 10.8 12.07 14.61a52 52 0 0 0 17.78 8.89 80.66 80.66 0 0 0 21.59 3.18 98.65 98.65 0 0 0 23.5-2.54c7.62-1.91 15.88-3.81 24.13-7.62v43.75c-10.16 2.54-11.43 3.18-21.59 5.08m48.87-173.37h66.68v174.01h-66.68zM562.5 83c0 11.43-3.81 21-11.43 27.31a43.55 43.55 0 0 1-28.58 10.16c-11.43 0-21-3.18-28.58-10.16-7.62-6.31-11.43-15.89-11.43-27.31 0-12.07 3.81-21 11.43-27.94s17.15-10.16 28.58-10.16 21 3.18 28.58 10.16C558.69 61.4 562.5 70.93 562.5 83"/><circle cx="649.5" cy="326.5" r="94.5" fill="#60be5b"/><path class="cls-4" d="M593.3 320.23c.43-1.08.78-2.2 1.31-3.22 3.86-7.39 13.68-8.09 19-1.29 4.73 6 9.31 12.08 14 18.13l11.09 14.4c3.44-4.22 6.76-8.27 10.06-12.34q18.85-23.25 37.68-46.53c3-3.68 6.58-5.46 11.23-4.43a10.78 10.78 0 0 1 8.66 8.45 2.48 2.48 0 0 0 .38.63v3.53c-1.28 4.74-4.89 7.93-7.81 11.54q-24.26 30.05-48.65 60a36.3 36.3 0 0 0-2.21 3c-4.38 6.72-13.42 7.35-18.34 1q-17.24-22.1-34.21-44.4a25.12 25.12 0 0 1-2.19-4.43v-4.04z" id="Ybhyht.tif"/></svg>